<svg xmlns="http://www.w3.org/2000/svg" xmlns:xlink="http://www.w3.org/1999/xlink" width="176" height="268" viewBox="0 0 176 268">
    <defs>
        <path id="a" d="M2.35 2.47l61.172.01.011 66.159-61.171-.01z"/>
    </defs>
    <g fill="none" fill-rule="evenodd">
        <path fill="#00DBD8" d="M1.979 70.734L108.394 1.487a4 4 0 0 1 5.98 2.098l61.124 184.966a4 4 0 0 1-1.409 4.463l-98.823 73.589a4 4 0 0 1-6.149-1.844L.4 75.451a4 4 0 0 1 1.579-4.717z"/>
        <g transform="translate(59 94)">
            <mask id="b" fill="#fff">
                <use xlink:href="#a"/>
            </mask>
            <path fill="#155F64" d="M29.464 16.668L25.512 6.515a6.917 6.917 0 0 0-.575-1.071c-1.14-2.532-4.544-4.075-7.608-2.242-3.08 1.846-4.1 6.04-3.11 8.576.175.75.387 1.243.398 1.27l4.395 9.787L2.544 51.5a.649.649 0 0 0-.053.581l2.785 6.284a.465.465 0 0 0 .41.277.691.691 0 0 0 .527-.227l20.433-21.38 6.978 12.528-2.947 11.246a.607.607 0 0 0 .019.387l1.937 4.623a.47.47 0 0 0 .496.284.646.646 0 0 0 .28-.092.82.82 0 0 0 .283-.292l5.589-9.875 9.526.625c.218.013.45-.105.597-.305.15-.202.19-.454.11-.65l-1.937-4.622a.467.467 0 0 0-.237-.247l-8.871-3.976-4.213-14.19 26.555-6.769a.764.764 0 0 0 .467-.368.664.664 0 0 0 .06-.56l-2.539-6.428a.467.467 0 0 0-.422-.297l-28.913-1.388z" mask="url(#b)" opacity=".353" transform="rotate(1 31.91 34.252)"/>
        </g>
    </g>
</svg>
