<svg xmlns="http://www.w3.org/2000/svg" xmlns:xlink="http://www.w3.org/1999/xlink" width="271" height="271" viewBox="0 0 271 271">
    <defs>
        <radialGradient id="a" cy="0%" r="100%" fx="50%" fy="0%">
            <stop offset="0%" stop-color="#231F44"/>
            <stop offset="100%" stop-color="#231F44"/>
        </radialGradient>
        <path id="b" d="M135.5 0C60.666 0 0 60.666 0 135.5S60.666 271 135.5 271 271 210.334 271 135.5 210.334 0 135.5 0z"/>
    </defs>
    <g fill="none" fill-rule="evenodd">
        <circle cx="135.5" cy="135.5" r="135.5" fill="url(#a)"/>
        <g opacity=".333">
            <mask id="c" fill="#fff">
                <use xlink:href="#b"/>
            </mask>
            <path fill="#7E5AFF" d="M252.196 173.595c-1.153.289 0 3.752 0 3.752l.288-4.906-.288 1.154zm-85.94-11.833h2.595l5.19.577s3.75 0 4.903-.288c1.154-.289.866 0 2.308 0 1.442 0 1.153.288 1.153.288l3.173-.288 1.441-1.443s-.576-.289-1.441-.577c-.866-.29-2.02 0-2.02 0s-1.441-.29-2.595-.29h-1.73l-2.884.578s-3.172 0-4.614-.288c-1.442-.29-1.442.288-1.442.288h-2.884l-3.75.577 2.596.866zm56.812 80.232s15.574-9.812 16.439-10.39c.865-.577 3.172-9.523 3.172-9.523l-1.153-3.464-1.73-1.154-2.308.866-1.73 4.617-6.922 4.618-3.172 2.598-4.326 2.886-.577 4.906 2.307 4.04zM95.888 276.05l70.944-.289 8.075-9.812-.577-1.155s-1.153-1.443-2.019-2.309c-.865-.866-2.018-1.154-2.018-1.154h-4.903s-8.363.288-10.094.288c-1.73 0-8.651.289-8.651.289l-3.173.866-6.056.288-11.247-1.443h-2.884s-6.056 1.443-6.922 1.443c-.865 0-3.172 1.732-3.172 1.732l-1.442 3.175-2.595-1.732-1.73-2.309-1.154-1.443-7.787-1.443-5.768 2.31 3.173 12.698zm106.993-45.6l1.73.866 1.442-2.598v-.865h-3.172c-1.73 0-.577 1.443-.577 1.443l.577 1.154zm-47.296-33.478v3.463c0 2.02.288 2.886.288 2.886s.289.866.865 5.484c.577 4.617.577 2.309.577 2.309l-.288 4.329c-.289 4.329 3.46.577 5.19.865 1.731.29 2.596-.288 2.596-.288l1.73-.866 3.461 1.443 5.768-2.02s4.038-1.732 6.056-2.309c2.02-.577 0 0 2.596-1.154 2.595-1.155 0 0 3.749-.289 3.75-.289 2.596.289 2.596.289l2.307 1.443c2.307 1.443.865 3.174.865 3.174h1.73l2.596-.866.577 3.175s.288.866 0 3.175c-.289 2.309.288 1.154 1.441 2.02 1.154.866 7.499-.577 7.499-.577l4.326-.289 1.442-3.174 2.883-4.33s.866-.865 2.308-2.02c1.442-1.154 3.46-2.597 5.19-4.329 1.731-1.731 2.02-3.752 2.02-3.752l1.73-7.503-.865-2.886-1.442-2.887s-.289-2.02-.577-3.174c-.289-1.155-.577-1.732-.865-2.598-.289-.865-.289-1.443-.577-2.308-.289-.866-.577-4.33-.577-4.33v-3.463l-2.595-3.752-.577-1.731-.577-2.31-.865-1.73-1.73 1.73-.866 1.155c-.865 1.155 0 2.02 0 2.02s-1.153 2.02-1.153 2.887c0 .865 2.884 5.194 2.884 5.194h-5.191l-3.461-1.443-1.154-1.154-2.307-1.443V171.863c0-.865.865-.577 2.307-1.443 1.442-.866 0 0 .577-1.154.577-1.155-.865-1.155-.865-1.155l-5.191-1.443-4.038 1.155-4.037 2.02-2.884 4.33-.865.865-1.73-1.443-1.73-1.154-2.02.865-2.018 1.155-2.884 2.597-2.307 2.02h-.866c-.865 0-.865 2.598-.865 2.598s-.865 1.732-1.442 3.175c-.577 1.443-.577.865-.577.865l-4.037 1.155-4.038.866-4.614.577-2.595 1.443h-1.73l-.866 2.597-.288 4.618zM59.262 40.259L55.8 42.57s-.865-.578-1.442.865-.865 2.309-.865 2.309-.865 1.732-.865 2.309c0 .577-2.884 3.174-2.884 3.174l-1.73 3.464.288 2.02 3.172 1.154 2.596-1.731s1.442-2.598 1.442-3.752c0-1.155-1.154-1.732 0-2.309 1.153-.577 2.018-.289 2.018-.866s.866-.288.866-2.02.576-3.463.576-3.463 2.596-.866 3.173-1.155c.576-.288 1.73-.288 1.73-2.02s-.865-1.732-.865-1.732.577-.577-1.73.29c-2.308.865-2.02 1.153-2.02 1.153zm-18.457 5.195l-.866 2.886c1.442.866 4.038 1.732 4.038 1.732l2.019-1.732 2.018-2.886.577-2.308v-2.02s0-.29-.577-.29h-3.172s.289-.865-.865.29c-1.154 1.154-.288 0-1.154 1.154-.865 1.154 0 .866-1.153 1.731-1.154.866-.865 0-1.154.866l.289.577zM26.962 170.42l-1.154 4.33-2.018 4.04s.865 3.752 1.441 4.329c.577.577 1.154 3.175 1.154 3.175l.288 4.04s1.154.577 1.154 1.443c0 .866 1.442 2.598 1.442 2.598s.577 2.308 1.73 2.308c1.154 0 .866-2.597.866-3.463 0-.866-.866-1.154-.866-2.597v-4.04l-.576-4.33.288-3.752-.577-3.752v-2.886l-1.442-2.597-1.442-1.155-.577 1.732.289.577zm57.101-51.371h-2.307l-.865 2.308.865 2.887.577.865s.289.866.865.866c.577 0 1.442-.866 1.442-.866l.289-.865V122.8l-.289-1.731-.577-2.02zM16.58 55.267L-5.05 85.57s4.038 103.321 3.75 103.898c-.289.577 23.36 31.458 23.36 31.458l3.171-6.638v-3.752l-.576-2.886-.577-4.617-2.596-3.752v-5.484c0-.866-2.018-2.597-2.018-2.597l-1.73-5.195-1.154-4.04.577-3.175s1.153-1.732 1.153-2.309c0-.577.577-2.886.577-2.886l-.577-2.309-1.442-4.329-1.153-6.06-.577-7.216v-3.752l.577-5.483s3.749-8.947 3.749-10.101c0-1.155 5.767-7.793 5.767-7.793s1.442-5.772 1.442-6.349 1.73-2.597 1.73-2.597l-.288-3.752s-1.153-.866-1.73-.866h-2.307l-3.75 1.443-2.018-1.443-1.153-5.772.865-5.195.865-9.524 2.307-12.121 2.307-3.752 3.172-2.02.866-6.638H23.213l-1.442-.289v-2.886l-5.191-9.524zm171.881 82.252l2.308 1.732.576-1.732s1.73-1.443 0-1.443h-2.884v1.443zm-49.891 17.317l1.153.865.577 1.443 2.884 1.732 4.326.866 5.48.577 5.19-1.154-1.153-.578-2.02-1.154-3.46.289-3.749-.866-3.749-1.443-1.154-.289-4.325-1.154v.866zm64.311-9.236s-1.442.577-1.442 2.31c0 1.73 1.442.865 1.442.865l.288.866.577.577s1.73.289 3.173.289c1.441 0 1.73.288 1.73.288l2.307 2.598v.577c0 .577-.288 2.597-.288 2.597l3.172 2.598.865 1.154 3.172.577 1.154-1.443 1.73-.866c1.73-.865 2.02-.577 2.02-.577l1.441.577 1.73 1.732s3.461 3.175 4.038 3.175c.577 0 .577-1.443 0-2.02 0 0-1.73-2.31-2.019-2.887-.288-.577-.865-1.154-.865-1.154l-.288-.866s.288-.577.288-1.154.577-1.155.577-1.155.865.289 1.73.289 1.442-.577 1.442-.577l5.191-1.155v-2.308c0-.578 0-.866-.865-1.155-.865-.288-.865.866-.865.866l-1.442.866-3.46 1.731-2.885-1.154-2.307-1.443-.577-1.732-2.884-2.02-4.902-1.443-2.307-.577s-.866-.577-2.308-.866c-1.442-.289-1.73 0-1.73 0l-2.884 2.309-.577 1.154-2.595.289-.577-1.732zm-5.48-4.617v1.443l1.154 1.154c1.154 1.154 1.154.866 1.154.866s1.442.577 2.307.577 1.442-.866 1.442-.866l.288-.866-.288-2.02h-2.019l-1.73-.577-1.73.289h-.577zm-25.955 4.04l-.288.577.577 1.732.288.866-.288 1.443s-2.307 2.597.865 2.597c3.172 0 .865-1.154.865-1.154l.288-2.02.866-1.155 1.442 2.309 1.73.577 1.442-2.02v-1.443l-2.019-2.309.577-1.154 1.73-.866s0-.577-.577-.866c-.576-.289-1.441-.289-2.018-.577-.577-.289-2.596 1.443-2.596 1.443l-1.442.866-1.442 1.154zm6.922-6.06l1.73-.866 5.191.288-2.595-1.154-3.75-.577h-2.307c-1.442 0-.865-.578-.865-.578l-1.953 2.172-.642.714h5.19zm-13.555-13.565l-.577 1.154c-.576 1.155 0 0-1.441 1.155a165.927 165.927 0 0 0-3.461 2.886s-4.614 2.02-5.768 3.174c-1.154 1.155-2.596 1.443-2.596 1.443s-2.018 1.155-2.883 2.02c-.866.867-.866 2.598 0 4.041.865 1.443.576 1.443 1.441 2.02.866.578.289 1.732.289 1.732l2.019 2.886 5.767-.577 3.75 1.154 1.73-.288 2.307-5.195s.577-1.732 1.154-3.752c.576-2.02 1.153-1.443 1.153-1.443l1.154-1.154s-1.154-4.04-1.73-4.907c-.577-.866 1.73-2.02 1.73-2.02l-.577-2.597-2.884-2.886-.865.577c-.865.577-.865.866-.865.866l1.153-.29zm15.285-16.162l.252.454 1.19 2.144s-.577-.578 0 1.154c.4 1.198.798 2.534 1.006 3.244l.148.508-1.442 2.597-1.154 2.598 2.307 2.886s.865 2.02 1.73 1.154c.866-.866 1.73-2.309 1.73-2.309s2.596-1.154 2.02-2.309a20.88 20.88 0 0 0-1.154-2.02l-.577-.288s0-.289-.576-.578c-.577-.288-1.442-.865-1.442-.865s-2.308-1.732-1.442-2.598l.865-.866.288-2.02-.865-2.02s-.577-.289-.865-.866c-.289-.577-2.019-1.443-2.019-1.443-.865.866-.865 1.443-1.154 2.02-.288.577-.288.289-1.153 1.443-.865 1.155-1.442 1.732-1.73 2.31-.289.576-.577 2.02-.577 2.02l.577 1.154 2.307-.577 1.442-1.732v-2.02s-.289-.577-.289-1.732v-1.154l.577-.289zM169.716 85.57s.288 1.443.865 2.02c.577.578 1.154 0 1.442-.288.288-.289.288-.866.577-1.443.288-.577.288-1.154.288-1.154l-.288-1.443-.289-.866-1.441.577-.577 1.732-.577.865zm4.326 21.357l2.307 3.463.865-3.463s-.577-.577-1.153-1.731c-.577-1.155-1.73-2.02-.577-2.886l1.153-.866 1.154-2.886-1.442-2.31-2.596-.288s.289-.288-.865.577c-1.153.866-1.153 1.155-1.153 2.31 0 1.154.288 2.885.288 2.885s-.577.578 0 1.732 1.73 2.597 1.73 2.597v2.02l.289-1.154zm-60.274 23.377s.577.577 1.153.577c.577 0 2.308.578 2.884.866.577.289.577.289 1.154 1.732s.865 1.731.865 1.731l2.307 1.732 2.596 2.598 3.172 8.37 4.614 3.174s1.154.577 3.173 1.443c2.018.866 2.884 1.443 2.884 1.443l.865-3.752-.289-3.463-2.307-2.02-.577-2.02h-1.73l-1.153-2.021-1.73-1.732-2.596-1.731-3.75-2.31-1.73-2.02-.577-3.174-3.172-1.732-5.768.866-.288 1.443zM82.91 105.773c0 .866 0 1.731.577 2.886.576 1.154 0 0-.865 3.752-.866 3.752 0 0-.577.288-.577.289-.289.866-1.442 2.31-1.154 1.442-.289 2.02-.289 2.02s-.288 1.154-1.73 2.885c-1.442 1.732-1.442.578-2.307.578s0 0-1.442-.578l-1.442-1.731-1.154-5.772-.288-2.31s-.865-1.73-1.442-4.328c0 0-.577-4.906-.577-5.484V97.98s-.577-1.731-.577-2.308c0-.578.577-1.443 1.73-3.752 1.154-2.31-.288-.577-.288-.577s0-1.155-1.442-1.732c-1.441-.577-.576.577-1.153 1.443-.577.866-.577.577-.577.577s-1.442.577-2.307.577-.577-1.443-.577-1.443l-.288-2.886-.865-.577-.289-1.154c-.288-1.155 0 0-.288-.866-.289-.866-.865-2.02-.865-2.02l-.866-1.155H50.898l-1.442-.577-1.73-1.732-.865-2.597s-.865 0-1.442-.289c-.577-.288-1.73-.577-1.73-.577l-1.73-2.02 1.153-2.309-.865-2.309s-1.442-.866-2.02-1.154c-.576-.289-1.441 2.886-1.441 2.886l-1.154 2.309-.865 3.463.577 2.02v2.598l.865 2.308s1.154.866 1.73.866c.577 0 .866-.577 2.02-1.443 1.153-.866.288-.577 1.441-.866 1.154-.288 1.442 0 1.442 0l1.442.578.288 1.731.289 2.31.577 2.02s-.866 1.442-1.442 1.442c-.577 0-.577.578-.577.578s-1.73 2.02-2.307 2.02-1.73 1.443-1.73 1.443l-1.73 1.731-2.02 2.598-2.884 2.309-6.344 3.174-4.614 3.464h-2.596l-.288-3.464 1.153-9.812 1.154-4.618v-7.792l.288-2.309 1.73-4.04.866-4.618 1.153-5.484 5.191-3.463 1.73-3.463-.288-1.443-2.307.866s-1.153-2.02-1.153-2.598c0-.577.288-2.309.288-2.309l2.595-6.638 12.69-12.987 19.61-13.853 16.15-7.504 5.768-1.731 13.843 1.154h5.479l4.326-1.731 4.615-.866s6.344-.866 6.921-1.155c.577-.288 8.075-1.443 8.075-1.443l3.172-1.731 4.038.577 2.595 1.154 3.75 1.443 2.595.866 8.075.577 4.326-.288 2.307-.289 6.633 1.155 7.787-.289 5.479-.577 15.862 6.926-.289 2.31-.865 1.73.288 1.732 3.461 3.175s1.442 1.443 2.019 2.309c.577.866.865 2.02.865 2.02v3.463c0 .578-1.442.866-1.442.866l-1.73-2.309-3.461-4.04-2.884-3.752.288-2.309-2.307-2.02-2.884.866-1.442 1.443h-7.209c-.866 0-1.154 1.443-1.154 1.443l-1.442 2.309.865 2.02 4.038 1.443 2.307-.289 3.172 1.155 2.019 2.309s1.154 1.731 1.73 2.308c.577.578 1.73 2.31 1.73 2.31l-.288 2.308h-1.442l-.576-.577-1.154-2.02-1.73-3.175-1.73-1.732 1.153 3.464.577 2.02v2.02l.288 2.598-.288 2.308-1.73 3.175h-4.038l-2.019.577-.288 2.598-1.442 2.597-.289 1.155.865 1.154 1.442.289 1.442 2.308.289 2.886 4.037 1.732 2.884-.866 1.154-.866 2.307-1.443 3.172-.865 1.154-.866.288-2.886-1.442-4.04-.432-1.01v-4.041l.288-1.443h3.172s1.442.577 2.307 1.154c.866.577 0 .577 0 .577l-1.73 1.732-2.019 2.02 1.154 1.732 2.019 3.752.576 2.886-.576 2.597-.577 1.732-6.056 1.154-3.461 1.732-3.172 2.309-2.307-2.02.288-2.887-2.019-.865-1.73.865h-3.172l-.866-3.174-.288-2.598h-2.019l-1.442-2.02-1.153-1.732-2.02.578-1.153-.866-2.307-1.155-2.884 1.732-2.018 1.154.576 3.175 1.442 1.443 1.154-1.443 1.442-1.154 1.73-.578 1.442.29-1.153 1.442-1.442 1.155-.866 1.154-.288 2.02.288 1.732 2.308 2.309 2.018 1.443v3.752l.289 3.174-.865 2.886-.289 2.598-3.172 2.597-1.73 2.598-2.308 1.154-4.037 1.154-2.019-1.443-.865 2.02-3.46 1.732-1.154 1.732v2.02l-.289 2.02-.865 1.443s-1.153.289-1.73.289-.289-.866-.289-.866l.289-1.443.288-1.443.289-.866-.577-.577-1.154-.577-1.153-.577-2.02.577-2.306.866-.577 1.443-.577 2.597 1.154 2.309s.865.577 1.73 1.443c.865.866 2.596 3.463 2.596 3.463l2.307 2.31v4.617s-2.019 4.04-2.596 4.329c-.577.288-2.884 2.597-2.884 2.597h-2.595l-4.326-1.443v-1.154s-2.596-1.155-3.172-1.732c-.577-.577-.577-1.443-.577-1.443l-1.73-1.731-2.885-1.155-2.307 3.463-.288 2.598.577 2.597.288 2.31 2.307 2.597 2.884.865v2.02l3.46 2.31.578 2.886v3.174l2.595 2.309-.865 2.02-3.46-1.154-2.308-1.443-2.884-4.618v-2.886l-1.442-4.329-1.73-1.154-2.307-1.732.288-1.732v-3.463l-.288-3.463.288-3.175-1.442-4.329v-1.732l-1.442-1.443h-.865l-1.442 1.443-1.73.866-2.307-.866-.289-3.463-.288-2.886-.577-2.02-2.307-1.732-.288-1.731-1.442-2.31-1.73-.576-1.154 1.443h-2.307s-2.02.577-2.596.577c-.577 0-1.154.866-1.154.866l-2.307 1.731-.865 1.155-2.884 1.443-1.73 2.02-2.307.289-1.442 2.597-2.884 1.732-1.442.865s-.721 2.165-.721 3.03z" mask="url(#c)"/>
        </g>
    </g>
</svg>
