<svg xmlns="http://www.w3.org/2000/svg" width="208" height="268" viewBox="0 0 208 268">
    <g fill="none" fill-rule="evenodd">
        <path fill="#FE0095" d="M67.162.568L202.93 36.915a6 6 0 0 1 4.244 7.348v.002l-58.806 219.272a6 6 0 0 1-7.347 4.242L5.253 231.434a6 6 0 0 1-4.244-7.35L59.815 4.812A6 6 0 0 1 67.162.571z"/>
        <path fill="#FFF" d="M103.355 145.585l-21.945 5.44 9.647-21.384-11.217-19.977 22.245 2.46 15.013-17.787 4.1 22.904 20.496 8.984-19.71 11.696-2.346 23.34z" opacity=".381"/>
    </g>
</svg>
